<?xml version="1.0" encoding="UTF-8" standalone="no"?>
<!-- Created with Inkscape (http://www.inkscape.org/) -->

<svg
   xmlns:dc="http://purl.org/dc/elements/1.1/"
   xmlns:cc="http://creativecommons.org/ns#"
   xmlns:rdf="http://www.w3.org/1999/02/22-rdf-syntax-ns#"
   xmlns:svg="http://www.w3.org/2000/svg"
   xmlns="http://www.w3.org/2000/svg"
   xmlns:sodipodi="http://sodipodi.sourceforge.net/DTD/sodipodi-0.dtd"
   xmlns:inkscape="http://www.inkscape.org/namespaces/inkscape"
   width="800"
   height="600"
   id="svg2"
   version="1.1"
   inkscape:version="0.48.3.1 r9886"
   sodipodi:docname="latin-capital-letter-e.svg">
  <sodipodi:namedview
     id="base"
     pagecolor="#ffffff"
     bordercolor="#666666"
     borderopacity="1.0"
     inkscape:pageopacity="0.0"
     inkscape:pageshadow="2"
     inkscape:zoom="1.2614593"
     inkscape:cx="481.0427"
     inkscape:cy="281.16449"
     inkscape:document-units="px"
     inkscape:current-layer="layer1"
     showgrid="false"
     inkscape:window-width="1630"
     inkscape:window-height="1026"
     inkscape:window-x="50"
     inkscape:window-y="24"
     inkscape:window-maximized="1"
     showguides="true"
     inkscape:guide-bbox="true" />
  <defs
     id="defs4">
    <marker
       style="overflow:visible"
       id="Arrow1Mend"
       refX="0"
       refY="0"
       orient="auto"
       inkscape:stockid="Arrow1Mend">
      <path
         transform="matrix(-0.4,0,0,-0.4,-4,0)"
         style="fill-rule:evenodd;stroke:#000000;stroke-width:1pt"
         d="M 0,0 5,-5 -12.5,0 5,5 0,0 z"
         id="path3880"
         inkscape:connector-curvature="0" />
    </marker>
    <marker
       style="overflow:visible"
       id="Arrow2Mstart"
       refX="0"
       refY="0"
       orient="auto"
       inkscape:stockid="Arrow2Mstart">
      <path
         transform="scale(0.6,0.6)"
         d="M 8.7185878,4.0337352 -2.2072895,0.01601326 8.7185884,-4.0017078 c -1.7454984,2.3720609 -1.7354408,5.6174519 -6e-7,8.035443 z"
         style="fill-rule:evenodd;stroke-width:0.625;stroke-linejoin:round"
         id="path3895"
         inkscape:connector-curvature="0" />
    </marker>
    <marker
       style="overflow:visible"
       id="Arrow1Sstart"
       refX="0"
       refY="0"
       orient="auto"
       inkscape:stockid="Arrow1Sstart">
      <path
         transform="matrix(0.2,0,0,0.2,1.2,0)"
         style="fill-rule:evenodd;stroke:#000000;stroke-width:1pt"
         d="M 0,0 5,-5 -12.5,0 5,5 0,0 z"
         id="path3883"
         inkscape:connector-curvature="0" />
    </marker>
    <marker
       inkscape:stockid="Torso"
       orient="auto"
       refY="0"
       refX="0"
       id="Torso"
       style="overflow:visible">
      <g
         id="g4083"
         transform="scale(0.7,0.7)">
        <path
           id="path4085"
           d="m -4.7792281,-3.239542 c 2.350374,0.3659393 5.30026732,1.9375477 5.03715532,3.62748546 C -0.00518779,2.0778819 -2.2126741,2.6176539 -4.5630471,2.2517169 -6.9134221,1.8857769 -8.521035,0.75201414 -8.257922,-0.93792336 -7.994809,-2.6278615 -7.1296041,-3.6054813 -4.7792281,-3.239542 z"
           style="fill:none;stroke:#000000;stroke-width:1.25"
           inkscape:connector-curvature="0" />
        <path
           id="path4087"
           d="M 4.4598789,0.08866574 C -2.5564571,-4.378332 5.2248769,-3.9061806 -0.84829578,-8.7197331"
           style="fill:none;stroke:#000000;stroke-width:1pt"
           inkscape:connector-curvature="0" />
        <path
           id="path4089"
           d="M 4.9298719,0.05752074 C -1.3872731,1.7494689 1.8027579,5.4782079 -4.9448731,7.5462725"
           style="fill:none;stroke:#000000;stroke-width:1pt"
           inkscape:connector-curvature="0" />
        <rect
           id="rect4091"
           transform="matrix(0.527536,-0.849533,0.887668,0.460484,0,0)"
           y="-1.7408575"
           x="-10.391706"
           height="2.7608147"
           width="2.6366582"
           style="fill-rule:evenodd;stroke-width:1pt" />
        <rect
           id="rect4093"
           transform="matrix(0.671205,-0.741272,0.790802,0.612072,0,0)"
           y="-7.9629307"
           x="4.9587269"
           height="2.8614161"
           width="2.7327356"
           style="fill-rule:evenodd;stroke-width:1pt" />
        <path
           id="path4095"
           transform="matrix(0,-1.109517,1.109517,0,25.96648,19.71619)"
           d="m 16.779951,-28.685045 a 0.60731727,0.60731727 0 1 0 -1.214634,0 0.60731727,0.60731727 0 1 0 1.214634,0 z"
           style="fill:#ff0000;fill-opacity:0.75;fill-rule:evenodd;stroke:#000000;stroke-width:1pt"
           inkscape:connector-curvature="0" />
        <path
           id="path4097"
           transform="matrix(0,-1.109517,1.109517,0,26.8245,16.99126)"
           d="m 16.779951,-28.685045 a 0.60731727,0.60731727 0 1 0 -1.214634,0 0.60731727,0.60731727 0 1 0 1.214634,0 z"
           style="fill:#ff0000;fill-opacity:0.75;fill-rule:evenodd;stroke:#000000;stroke-width:1pt"
           inkscape:connector-curvature="0" />
      </g>
    </marker>
    <marker
       inkscape:stockid="TriangleInM"
       orient="auto"
       refY="0"
       refX="0"
       id="TriangleInM"
       style="overflow:visible">
      <path
         id="path4007"
         d="m 5.77,0 -8.65,5 0,-10 8.65,5 z"
         style="fill-rule:evenodd;stroke:#000000;stroke-width:1pt"
         transform="scale(-0.4,-0.4)"
         inkscape:connector-curvature="0" />
    </marker>
    <marker
       inkscape:stockid="Arrow1Mstart"
       orient="auto"
       refY="0"
       refX="0"
       id="Arrow1Mstart"
       style="overflow:visible">
      <path
         id="path3877"
         d="M 0,0 5,-5 -12.5,0 5,5 0,0 z"
         style="fill-rule:evenodd;stroke:#000000;stroke-width:1pt"
         transform="matrix(0.4,0,0,0.4,4,0)"
         inkscape:connector-curvature="0" />
    </marker>
    <marker
       inkscape:stockid="Torso0"
       orient="auto"
       refY="0"
       refX="0"
       id="Torso0"
       style="overflow:visible">
      <g
         id="g4715"
         transform="scale(0.7,0.7)">
        <path
           id="path4717"
           d="m -4.7792281,-3.239542 c 2.350374,0.3659393 5.30026732,1.9375477 5.03715532,3.62748546 C -0.00518779,2.0778819 -2.2126741,2.6176539 -4.5630471,2.2517169 -6.9134221,1.8857769 -8.521035,0.75201414 -8.257922,-0.93792336 -7.994809,-2.6278615 -7.1296041,-3.6054813 -4.7792281,-3.239542 z"
           style="fill:none;stroke:#787878;stroke-width:1.25"
           inkscape:connector-curvature="0" />
        <path
           id="path4719"
           d="M 4.4598789,0.08866574 C -2.5564571,-4.378332 5.2248769,-3.9061806 -0.84829578,-8.7197331"
           style="fill:none;stroke:#787878;stroke-width:1pt"
           inkscape:connector-curvature="0" />
        <path
           id="path4721"
           d="M 4.9298719,0.05752074 C -1.3872731,1.7494689 1.8027579,5.4782079 -4.9448731,7.5462725"
           style="fill:none;stroke:#787878;stroke-width:1pt"
           inkscape:connector-curvature="0" />
        <rect
           id="rect4723"
           transform="matrix(0.527536,-0.849533,0.887668,0.460484,0,0)"
           y="-1.7408575"
           x="-10.391706"
           height="2.7608147"
           width="2.6366582"
           style="fill:#787878;fill-rule:evenodd;stroke:#787878;stroke-width:1pt" />
        <rect
           id="rect4725"
           transform="matrix(0.671205,-0.741272,0.790802,0.612072,0,0)"
           y="-7.9629307"
           x="4.9587269"
           height="2.8614161"
           width="2.7327356"
           style="fill:#787878;fill-rule:evenodd;stroke:#787878;stroke-width:1pt" />
        <path
           id="path4727"
           transform="matrix(0,-1.109517,1.109517,0,25.96648,19.71619)"
           d="m 16.779951,-28.685045 a 0.60731727,0.60731727 0 1 0 -1.214634,0 0.60731727,0.60731727 0 1 0 1.214634,0 z"
           style="fill:#787878;fill-opacity:0.75;fill-rule:evenodd;stroke:#787878;stroke-width:1pt"
           inkscape:connector-curvature="0" />
        <path
           id="path4729"
           transform="matrix(0,-1.109517,1.109517,0,26.8245,16.99126)"
           d="m 16.779951,-28.685045 a 0.60731727,0.60731727 0 1 0 -1.214634,0 0.60731727,0.60731727 0 1 0 1.214634,0 z"
           style="fill:#787878;fill-opacity:0.75;fill-rule:evenodd;stroke:#787878;stroke-width:1pt"
           inkscape:connector-curvature="0" />
      </g>
    </marker>
    <marker
       inkscape:stockid="Arrow1Mstartr"
       orient="auto"
       refY="0"
       refX="0"
       id="Arrow1Mstartr"
       style="overflow:visible">
      <path
         id="path6055"
         d="M 0,0 5,-5 -12.5,0 5,5 0,0 z"
         style="fill:#787878;fill-rule:evenodd;stroke:#787878;stroke-width:1pt"
         transform="matrix(0.4,0,0,0.4,4,0)"
         inkscape:connector-curvature="0" />
    </marker>
    <marker
       style="overflow:visible"
       id="Arrow1Mende"
       refX="0"
       refY="0"
       orient="auto"
       inkscape:stockid="Arrow1Mende">
      <path
         transform="matrix(-0.4,0,0,-0.4,-4,0)"
         style="fill:#787878;fill-rule:evenodd;stroke:#787878;stroke-width:1pt"
         d="M 0,0 5,-5 -12.5,0 5,5 0,0 z"
         id="path6058"
         inkscape:connector-curvature="0" />
    </marker>
    <marker
       inkscape:stockid="Arrow1Mstartr"
       orient="auto"
       refY="0"
       refX="0"
       id="Arrow1Mstartr-6"
       style="overflow:visible">
      <path
         inkscape:connector-curvature="0"
         id="path6055-6"
         d="M 0,0 5,-5 -12.5,0 5,5 0,0 z"
         style="fill:#787878;fill-rule:evenodd;stroke:#787878;stroke-width:1pt"
         transform="matrix(0.4,0,0,0.4,4,0)" />
    </marker>
    <marker
       style="overflow:visible"
       id="Arrow1Mende-9"
       refX="0"
       refY="0"
       orient="auto"
       inkscape:stockid="Arrow1Mende">
      <path
         inkscape:connector-curvature="0"
         transform="matrix(-0.4,0,0,-0.4,-4,0)"
         style="fill:#787878;fill-rule:evenodd;stroke:#787878;stroke-width:1pt"
         d="M 0,0 5,-5 -12.5,0 5,5 0,0 z"
         id="path6058-5" />
    </marker>
    <marker
       inkscape:stockid="Arrow1Mstartrk"
       orient="auto"
       refY="0"
       refX="0"
       id="Arrow1Mstartrk"
       style="overflow:visible">
      <path
         id="path6209"
         d="M 0,0 5,-5 -12.5,0 5,5 0,0 z"
         style="fill:#787878;fill-rule:evenodd;stroke:#787878;stroke-width:1pt"
         transform="matrix(0.4,0,0,0.4,4,0)"
         inkscape:connector-curvature="0" />
    </marker>
    <marker
       style="overflow:visible"
       id="Arrow1Mendee"
       refX="0"
       refY="0"
       orient="auto"
       inkscape:stockid="Arrow1Mendee">
      <path
         transform="matrix(-0.4,0,0,-0.4,-4,0)"
         style="fill:#787878;fill-rule:evenodd;stroke:#787878;stroke-width:1pt"
         d="M 0,0 5,-5 -12.5,0 5,5 0,0 z"
         id="path6212"
         inkscape:connector-curvature="0" />
    </marker>
    <marker
       inkscape:stockid="Arrow1MstartrkA"
       orient="auto"
       refY="0"
       refX="0"
       id="Arrow1MstartrkA"
       style="overflow:visible">
      <path
         id="path6347"
         d="M 0,0 5,-5 -12.5,0 5,5 0,0 z"
         style="fill:#505050;fill-rule:evenodd;stroke:#505050;stroke-width:1pt"
         transform="matrix(0.4,0,0,0.4,4,0)"
         inkscape:connector-curvature="0" />
    </marker>
    <marker
       style="overflow:visible"
       id="Arrow1Mendeep"
       refX="0"
       refY="0"
       orient="auto"
       inkscape:stockid="Arrow1Mendeep">
      <path
         transform="matrix(-0.4,0,0,-0.4,-4,0)"
         style="fill:#505050;fill-rule:evenodd;stroke:#505050;stroke-width:1pt"
         d="M 0,0 5,-5 -12.5,0 5,5 0,0 z"
         id="path6350"
         inkscape:connector-curvature="0" />
    </marker>
    <marker
       inkscape:stockid="Arrow1MstartrkA"
       orient="auto"
       refY="0"
       refX="0"
       id="Arrow1MstartrkA-7"
       style="overflow:visible">
      <path
         inkscape:connector-curvature="0"
         id="path6347-3"
         d="M 0,0 5,-5 -12.5,0 5,5 0,0 z"
         style="fill:#505050;fill-rule:evenodd;stroke:#505050;stroke-width:1pt"
         transform="matrix(0.4,0,0,0.4,4,0)" />
    </marker>
    <marker
       style="overflow:visible"
       id="Arrow1Mendeep-5"
       refX="0"
       refY="0"
       orient="auto"
       inkscape:stockid="Arrow1Mendeep">
      <path
         inkscape:connector-curvature="0"
         transform="matrix(-0.4,0,0,-0.4,-4,0)"
         style="fill:#505050;fill-rule:evenodd;stroke:#505050;stroke-width:1pt"
         d="M 0,0 5,-5 -12.5,0 5,5 0,0 z"
         id="path6350-9" />
    </marker>
    <marker
       inkscape:stockid="Arrow1MstartrkA"
       orient="auto"
       refY="0"
       refX="0"
       id="Arrow1MstartrkA-9"
       style="overflow:visible">
      <path
         inkscape:connector-curvature="0"
         id="path6347-8"
         d="M 0,0 5,-5 -12.5,0 5,5 0,0 z"
         style="fill:#505050;fill-rule:evenodd;stroke:#505050;stroke-width:1pt"
         transform="matrix(0.4,0,0,0.4,4,0)" />
    </marker>
    <marker
       style="overflow:visible"
       id="Arrow1Mendeep-4"
       refX="0"
       refY="0"
       orient="auto"
       inkscape:stockid="Arrow1Mendeep">
      <path
         inkscape:connector-curvature="0"
         transform="matrix(-0.4,0,0,-0.4,-4,0)"
         style="fill:#505050;fill-rule:evenodd;stroke:#505050;stroke-width:1pt"
         d="M 0,0 5,-5 -12.5,0 5,5 0,0 z"
         id="path6350-5" />
    </marker>
    <marker
       inkscape:stockid="Arrow1MstartrkA"
       orient="auto"
       refY="0"
       refX="0"
       id="Arrow1MstartrkA-1"
       style="overflow:visible">
      <path
         inkscape:connector-curvature="0"
         id="path6347-37"
         d="M 0,0 5,-5 -12.5,0 5,5 0,0 z"
         style="fill:#505050;fill-rule:evenodd;stroke:#505050;stroke-width:1pt"
         transform="matrix(0.4,0,0,0.4,4,0)" />
    </marker>
    <marker
       style="overflow:visible"
       id="Arrow1Mendeep-9"
       refX="0"
       refY="0"
       orient="auto"
       inkscape:stockid="Arrow1Mendeep">
      <path
         inkscape:connector-curvature="0"
         transform="matrix(-0.4,0,0,-0.4,-4,0)"
         style="fill:#505050;fill-rule:evenodd;stroke:#505050;stroke-width:1pt"
         d="M 0,0 5,-5 -12.5,0 5,5 0,0 z"
         id="path6350-4" />
    </marker>
    <marker
       inkscape:stockid="Arrow1MstartrkAs"
       orient="auto"
       refY="0"
       refX="0"
       id="Arrow1MstartrkAs"
       style="overflow:visible">
      <path
         id="path6740"
         d="M 0,0 5,-5 -12.5,0 5,5 0,0 z"
         style="fill:#a0a0a0;fill-rule:evenodd;stroke:#a0a0a0;stroke-width:1pt"
         transform="matrix(0.4,0,0,0.4,4,0)"
         inkscape:connector-curvature="0" />
    </marker>
    <marker
       style="overflow:visible"
       id="Arrow1Mendeepx"
       refX="0"
       refY="0"
       orient="auto"
       inkscape:stockid="Arrow1Mendeepx">
      <path
         transform="matrix(-0.4,0,0,-0.4,-4,0)"
         style="fill:#a0a0a0;fill-rule:evenodd;stroke:#a0a0a0;stroke-width:1pt"
         d="M 0,0 5,-5 -12.5,0 5,5 0,0 z"
         id="path6743"
         inkscape:connector-curvature="0" />
    </marker>
    <marker
       inkscape:stockid="Arrow1MstartrkAs"
       orient="auto"
       refY="0"
       refX="0"
       id="Arrow1MstartrkAs-6"
       style="overflow:visible">
      <path
         id="path6740-3"
         d="M 0,0 5,-5 -12.5,0 5,5 0,0 z"
         style="fill:#a0a0a0;fill-rule:evenodd;stroke:#a0a0a0;stroke-width:1pt"
         transform="matrix(0.4,0,0,0.4,4,0)"
         inkscape:connector-curvature="0" />
    </marker>
    <marker
       style="overflow:visible"
       id="Arrow1Mendeepx-4"
       refX="0"
       refY="0"
       orient="auto"
       inkscape:stockid="Arrow1Mendeepx">
      <path
         transform="matrix(-0.4,0,0,-0.4,-4,0)"
         style="fill:#a0a0a0;fill-rule:evenodd;stroke:#a0a0a0;stroke-width:1pt"
         d="M 0,0 5,-5 -12.5,0 5,5 0,0 z"
         id="path6743-9"
         inkscape:connector-curvature="0" />
    </marker>
    <marker
       inkscape:stockid="Arrow1MstartrkAs"
       orient="auto"
       refY="0"
       refX="0"
       id="Arrow1MstartrkAs-0"
       style="overflow:visible">
      <path
         id="path6740-5"
         d="M 0,0 5,-5 -12.5,0 5,5 0,0 z"
         style="fill:#a0a0a0;fill-rule:evenodd;stroke:#a0a0a0;stroke-width:1pt"
         transform="matrix(0.4,0,0,0.4,4,0)"
         inkscape:connector-curvature="0" />
    </marker>
    <marker
       style="overflow:visible"
       id="Arrow1Mendeepx-49"
       refX="0"
       refY="0"
       orient="auto"
       inkscape:stockid="Arrow1Mendeepx">
      <path
         transform="matrix(-0.4,0,0,-0.4,-4,0)"
         style="fill:#a0a0a0;fill-rule:evenodd;stroke:#a0a0a0;stroke-width:1pt"
         d="M 0,0 5,-5 -12.5,0 5,5 0,0 z"
         id="path6743-4"
         inkscape:connector-curvature="0" />
    </marker>
    <marker
       inkscape:stockid="Arrow1MstartrkAs"
       orient="auto"
       refY="0"
       refX="0"
       id="Arrow1MstartrkAs-2"
       style="overflow:visible">
      <path
         id="path6740-1"
         d="M 0,0 5,-5 -12.5,0 5,5 0,0 z"
         style="fill:#a0a0a0;fill-rule:evenodd;stroke:#a0a0a0;stroke-width:1pt"
         transform="matrix(0.4,0,0,0.4,4,0)"
         inkscape:connector-curvature="0" />
    </marker>
    <marker
       style="overflow:visible"
       id="Arrow1Mendeepx-1"
       refX="0"
       refY="0"
       orient="auto"
       inkscape:stockid="Arrow1Mendeepx">
      <path
         transform="matrix(-0.4,0,0,-0.4,-4,0)"
         style="fill:#a0a0a0;fill-rule:evenodd;stroke:#a0a0a0;stroke-width:1pt"
         d="M 0,0 5,-5 -12.5,0 5,5 0,0 z"
         id="path6743-8"
         inkscape:connector-curvature="0" />
    </marker>
    <marker
       inkscape:stockid="Arrow1MstartrkAst"
       orient="auto"
       refY="0"
       refX="0"
       id="Arrow1MstartrkAst"
       style="overflow:visible">
      <path
         id="path7174"
         d="M 0,0 5,-5 -12.5,0 5,5 0,0 z"
         style="fill:#a0a0a0;fill-rule:evenodd;stroke:#a0a0a0;stroke-width:1pt"
         transform="matrix(0.4,0,0,0.4,4,0)"
         inkscape:connector-curvature="0" />
    </marker>
    <marker
       style="overflow:visible"
       id="Arrow1Mendeepxu"
       refX="0"
       refY="0"
       orient="auto"
       inkscape:stockid="Arrow1Mendeepxu">
      <path
         transform="matrix(-0.4,0,0,-0.4,-4,0)"
         style="fill:#a0a0a0;fill-rule:evenodd;stroke:#a0a0a0;stroke-width:1pt"
         d="M 0,0 5,-5 -12.5,0 5,5 0,0 z"
         id="path7177"
         inkscape:connector-curvature="0" />
    </marker>
    <marker
       inkscape:stockid="Arrow1MstartrkAstc"
       orient="auto"
       refY="0"
       refX="0"
       id="Arrow1MstartrkAstc"
       style="overflow:visible">
      <path
         id="path7428"
         d="M 0,0 5,-5 -12.5,0 5,5 0,0 z"
         style="fill:#000000;fill-rule:evenodd;stroke:#000000;stroke-width:1pt"
         transform="matrix(0.4,0,0,0.4,4,0)"
         inkscape:connector-curvature="0" />
    </marker>
    <marker
       style="overflow:visible"
       id="Arrow1MendeepxuM"
       refX="0"
       refY="0"
       orient="auto"
       inkscape:stockid="Arrow1MendeepxuM">
      <path
         transform="matrix(-0.4,0,0,-0.4,-4,0)"
         style="fill:#000000;fill-rule:evenodd;stroke:#000000;stroke-width:1pt"
         d="M 0,0 5,-5 -12.5,0 5,5 0,0 z"
         id="path7431"
         inkscape:connector-curvature="0" />
    </marker>
    <marker
       inkscape:stockid="Arrow1MstartrkAstc"
       orient="auto"
       refY="0"
       refX="0"
       id="Arrow1MstartrkAstc-3"
       style="overflow:visible">
      <path
         id="path7428-6"
         d="M 0,0 5,-5 -12.5,0 5,5 0,0 z"
         style="fill:#000000;fill-rule:evenodd;stroke:#000000;stroke-width:1pt"
         transform="matrix(0.4,0,0,0.4,4,0)"
         inkscape:connector-curvature="0" />
    </marker>
    <marker
       style="overflow:visible"
       id="Arrow1MendeepxuM-9"
       refX="0"
       refY="0"
       orient="auto"
       inkscape:stockid="Arrow1MendeepxuM">
      <path
         transform="matrix(-0.4,0,0,-0.4,-4,0)"
         style="fill:#000000;fill-rule:evenodd;stroke:#000000;stroke-width:1pt"
         d="M 0,0 5,-5 -12.5,0 5,5 0,0 z"
         id="path7431-7"
         inkscape:connector-curvature="0" />
    </marker>
    <marker
       inkscape:stockid="Arrow1MstartrkAstc"
       orient="auto"
       refY="0"
       refX="0"
       id="Arrow1MstartrkAstc-0"
       style="overflow:visible">
      <path
         id="path7428-4"
         d="M 0,0 5,-5 -12.5,0 5,5 0,0 z"
         style="fill:#000000;fill-rule:evenodd;stroke:#000000;stroke-width:1pt"
         transform="matrix(0.4,0,0,0.4,4,0)"
         inkscape:connector-curvature="0" />
    </marker>
    <marker
       style="overflow:visible"
       id="Arrow1MendeepxuM-8"
       refX="0"
       refY="0"
       orient="auto"
       inkscape:stockid="Arrow1MendeepxuM">
      <path
         transform="matrix(-0.4,0,0,-0.4,-4,0)"
         style="fill:#000000;fill-rule:evenodd;stroke:#000000;stroke-width:1pt"
         d="M 0,0 5,-5 -12.5,0 5,5 0,0 z"
         id="path7431-1"
         inkscape:connector-curvature="0" />
    </marker>
    <marker
       inkscape:stockid="Arrow1MstartrkAstc"
       orient="auto"
       refY="0"
       refX="0"
       id="Arrow1MstartrkAstc-5"
       style="overflow:visible">
      <path
         id="path7428-7"
         d="M 0,0 5,-5 -12.5,0 5,5 0,0 z"
         style="fill:#000000;fill-rule:evenodd;stroke:#000000;stroke-width:1pt"
         transform="matrix(0.4,0,0,0.4,4,0)"
         inkscape:connector-curvature="0" />
    </marker>
    <marker
       style="overflow:visible"
       id="Arrow1MendeepxuM-7"
       refX="0"
       refY="0"
       orient="auto"
       inkscape:stockid="Arrow1MendeepxuM">
      <path
         transform="matrix(-0.4,0,0,-0.4,-4,0)"
         style="fill:#000000;fill-rule:evenodd;stroke:#000000;stroke-width:1pt"
         d="M 0,0 5,-5 -12.5,0 5,5 0,0 z"
         id="path7431-19"
         inkscape:connector-curvature="0" />
    </marker>
    <marker
       inkscape:stockid="Arrow1MstartrkAstc"
       orient="auto"
       refY="0"
       refX="0"
       id="Arrow1MstartrkAstc-36"
       style="overflow:visible">
      <path
         id="path7428-0"
         d="M 0,0 5,-5 -12.5,0 5,5 0,0 z"
         style="fill:#000000;fill-rule:evenodd;stroke:#000000;stroke-width:1pt"
         transform="matrix(0.4,0,0,0.4,4,0)"
         inkscape:connector-curvature="0" />
    </marker>
    <marker
       style="overflow:visible"
       id="Arrow1MendeepxuM-5"
       refX="0"
       refY="0"
       orient="auto"
       inkscape:stockid="Arrow1MendeepxuM">
      <path
         transform="matrix(-0.4,0,0,-0.4,-4,0)"
         style="fill:#000000;fill-rule:evenodd;stroke:#000000;stroke-width:1pt"
         d="M 0,0 5,-5 -12.5,0 5,5 0,0 z"
         id="path7431-8"
         inkscape:connector-curvature="0" />
    </marker>
    <marker
       inkscape:stockid="Arrow1MstartrkAstc"
       orient="auto"
       refY="0"
       refX="0"
       id="Arrow1MstartrkAstc-4"
       style="overflow:visible">
      <path
         id="path7428-8"
         d="M 0,0 5,-5 -12.5,0 5,5 0,0 z"
         style="fill:#000000;fill-rule:evenodd;stroke:#000000;stroke-width:1pt"
         transform="matrix(0.4,0,0,0.4,4,0)"
         inkscape:connector-curvature="0" />
    </marker>
    <marker
       style="overflow:visible"
       id="Arrow1MendeepxuM-55"
       refX="0"
       refY="0"
       orient="auto"
       inkscape:stockid="Arrow1MendeepxuM">
      <path
         transform="matrix(-0.4,0,0,-0.4,-4,0)"
         style="fill:#000000;fill-rule:evenodd;stroke:#000000;stroke-width:1pt"
         d="M 0,0 5,-5 -12.5,0 5,5 0,0 z"
         id="path7431-85"
         inkscape:connector-curvature="0" />
    </marker>
    <marker
       inkscape:stockid="Arrow1MstartrkAstct"
       orient="auto"
       refY="0"
       refX="0"
       id="Arrow1MstartrkAstct"
       style="overflow:visible">
      <path
         id="path8095"
         d="M 0,0 5,-5 -12.5,0 5,5 0,0 z"
         style="fill:#000000;fill-rule:evenodd;stroke:#000000;stroke-width:1pt"
         transform="matrix(0.4,0,0,0.4,4,0)"
         inkscape:connector-curvature="0" />
    </marker>
    <marker
       style="overflow:visible"
       id="Arrow1MendeepxuMn"
       refX="0"
       refY="0"
       orient="auto"
       inkscape:stockid="Arrow1MendeepxuMn">
      <path
         transform="matrix(-0.4,0,0,-0.4,-4,0)"
         style="fill:#000000;fill-rule:evenodd;stroke:#000000;stroke-width:1pt"
         d="M 0,0 5,-5 -12.5,0 5,5 0,0 z"
         id="path8098"
         inkscape:connector-curvature="0" />
    </marker>
    <marker
       style="overflow:visible"
       id="Arrow1MendeepxuMn-8"
       refX="0"
       refY="0"
       orient="auto"
       inkscape:stockid="Arrow1MendeepxuMn">
      <path
         inkscape:connector-curvature="0"
         transform="matrix(-0.4,0,0,-0.4,-4,0)"
         style="fill:#000000;fill-rule:evenodd;stroke:#000000;stroke-width:1pt"
         d="M 0,0 5,-5 -12.5,0 5,5 0,0 z"
         id="path8098-9" />
    </marker>
    <marker
       inkscape:stockid="Arrow1MstartrkAstc"
       orient="auto"
       refY="0"
       refX="0"
       id="Arrow1MstartrkAstc-7"
       style="overflow:visible">
      <path
         inkscape:connector-curvature="0"
         id="path7428-82"
         d="M 0,0 5,-5 -12.5,0 5,5 0,0 z"
         style="fill:#000000;fill-rule:evenodd;stroke:#000000;stroke-width:1pt"
         transform="matrix(0.4,0,0,0.4,4,0)" />
    </marker>
    <marker
       style="overflow:visible"
       id="Arrow1MendeepxuM-3"
       refX="0"
       refY="0"
       orient="auto"
       inkscape:stockid="Arrow1MendeepxuM">
      <path
         inkscape:connector-curvature="0"
         transform="matrix(-0.4,0,0,-0.4,-4,0)"
         style="fill:#000000;fill-rule:evenodd;stroke:#000000;stroke-width:1pt"
         d="M 0,0 5,-5 -12.5,0 5,5 0,0 z"
         id="path7431-3" />
    </marker>
  </defs>
  <metadata
     id="metadata7">
    <rdf:RDF>
      <cc:Work
         rdf:about="">
        <dc:format>image/svg+xml</dc:format>
        <dc:type
           rdf:resource="http://purl.org/dc/dcmitype/StillImage" />
        <dc:title />
      </cc:Work>
    </rdf:RDF>
  </metadata>
  <g
     inkscape:groupmode="layer"
     id="layer2"
     inkscape:label="Letter"
     style="display:inline"
     transform="translate(0,-144.09448)">
    <g
       style="font-size:40px;font-style:normal;font-weight:normal;line-height:125%;letter-spacing:0px;word-spacing:0px;color:#000000;fill:#969696;fill-opacity:1;fill-rule:nonzero;stroke:none;marker:none;visibility:visible;display:inline;overflow:visible;enable-background:accumulate;font-family:Sans"
       id="text3145"
       transform="translate(220.49588,-327.4992)">
      <path
         d="m 115.67705,946.13599 120,0 0,-47.5 -67.5,0 0,-125 62.5,0 0,-47.5 -62.5,0 0,-92.5 67.5,0 0,-47.5 -120,0 0,360"
         style="font-size:500px;font-variant:normal;font-weight:bold;font-stretch:normal;color:#000000;fill:#969696;marker:none;visibility:visible;display:inline;overflow:visible;enable-background:accumulate;font-family:Okemos;-inkscape-font-specification:Okemos Bold"
         id="path3169"
         inkscape:connector-curvature="0" />
    </g>
  </g>
  <g
     inkscape:label="Dimensions"
     inkscape:groupmode="layer"
     id="layer1"
     transform="translate(0,-452.36218)"
     style="display:inline">
    <path
       style="color:#000000;fill:none;stroke:#000000;stroke-width:1.5;stroke-linecap:square;stroke-linejoin:miter;stroke-miterlimit:4;stroke-opacity:1;stroke-dasharray:none;stroke-dashoffset:0;marker:none;visibility:visible;display:inline;overflow:visible;enable-background:accumulate"
       d="m 179.73648,926.15449 517.46191,0"
       id="path3012"
       inkscape:connector-curvature="0"
       sodipodi:nodetypes="cc" />
    <path
       sodipodi:nodetypes="cc"
       inkscape:connector-curvature="0"
       id="path3825"
       d="m 170.39257,567.65449 526.80582,0"
       style="color:#000000;fill:none;stroke:#000000;stroke-width:1.5;stroke-linecap:square;stroke-linejoin:miter;stroke-miterlimit:4;stroke-opacity:1;stroke-dasharray:none;stroke-dashoffset:0;marker:none;visibility:visible;display:inline;overflow:visible;enable-background:accumulate" />
    <path
       sodipodi:nodetypes="cc"
       inkscape:connector-curvature="0"
       id="path3863"
       d="m 336.84452,927.65449 0,68.77717"
       style="color:#000000;fill:none;stroke:#000000;stroke-width:1.5;stroke-linecap:square;stroke-linejoin:miter;stroke-miterlimit:4;stroke-opacity:1;stroke-dasharray:none;stroke-dashoffset:0;marker:none;visibility:visible;display:inline;overflow:visible;enable-background:accumulate" />
    <path
       style="color:#000000;fill:#000000;fill-opacity:1;fill-rule:nonzero;stroke:#000000;stroke-width:1;stroke-linecap:butt;stroke-linejoin:miter;stroke-miterlimit:4;stroke-opacity:1;stroke-dasharray:none;stroke-dashoffset:0;marker:none;marker-start:url(#Arrow1MstartrkAstc);marker-end:url(#Arrow1MendeepxuM);visibility:visible;display:inline;overflow:visible;enable-background:accumulate"
       d="m 339.48703,954.84459 45.78403,0"
       id="path3865"
       inkscape:connector-curvature="0"
       sodipodi:nodetypes="cc" />
    <path
       style="color:#000000;fill:#000000;fill-opacity:1;fill-rule:nonzero;stroke:#000000;stroke-width:1;stroke-linecap:butt;stroke-linejoin:miter;stroke-miterlimit:4;stroke-opacity:1;stroke-dasharray:none;stroke-dashoffset:0;marker:none;marker-start:url(#Arrow1MstartrkAstc);marker-end:url(#Arrow1MendeepxuM);visibility:visible;display:inline;overflow:visible;enable-background:accumulate"
       d="m 603.74184,923.57957 0,-353.29658"
       id="path3865-0"
       inkscape:connector-curvature="0"
       sodipodi:nodetypes="cc" />
    <path
       sodipodi:nodetypes="cc"
       inkscape:connector-curvature="0"
       id="path7700"
       d="m 502.71764,880.15736 -45.83383,0"
       style="color:#000000;fill:none;stroke:#000000;stroke-width:1.5;stroke-linecap:square;stroke-linejoin:miter;stroke-miterlimit:4;stroke-opacity:1;stroke-dasharray:none;stroke-dashoffset:0;marker:none;visibility:visible;display:inline;overflow:visible;enable-background:accumulate" />
    <path
       sodipodi:nodetypes="cc"
       inkscape:connector-curvature="0"
       id="path6163-0"
       d="m 498.21916,877.63116 0,-121.53464"
       style="color:#000000;fill:#000000;fill-opacity:1;fill-rule:nonzero;stroke:#000000;stroke-width:1;stroke-linecap:butt;stroke-linejoin:miter;stroke-miterlimit:4;stroke-opacity:1;stroke-dasharray:none;stroke-dashoffset:0;marker:none;marker-start:url(#Arrow1MstartrkAstc);marker-end:url(#Arrow1MendeepxuM);visibility:visible;display:inline;overflow:visible;enable-background:accumulate" />
    <text
       sodipodi:linespacing="125%"
       id="text7818"
       y="926.58246"
       x="99.949799"
       style="font-size:14px;font-style:normal;font-weight:normal;line-height:125%;letter-spacing:0px;word-spacing:0px;fill:#000000;fill-opacity:1;stroke:none;font-family:Sans;-inkscape-font-specification:FreeSans"
       xml:space="preserve"><tspan
         style="font-size:14px;font-style:normal;font-variant:normal;font-weight:normal;font-stretch:normal;font-family:FreeSans;-inkscape-font-specification:FreeSans"
         y="926.58246"
         x="99.949799"
         id="tspan7820"
         sodipodi:role="line">BASE LINE</tspan></text>
    <text
       xml:space="preserve"
       style="font-size:14px;font-style:normal;font-weight:normal;line-height:125%;letter-spacing:0px;word-spacing:0px;fill:#000000;fill-opacity:1;stroke:none;font-family:Sans;-inkscape-font-specification:FreeSans"
       x="99.949799"
       y="577.2785"
       id="text7822"
       sodipodi:linespacing="125%"><tspan
         sodipodi:role="line"
         id="tspan7824"
         x="99.949799"
         y="577.2785"
         style="font-size:14px;font-style:normal;font-variant:normal;font-weight:normal;font-stretch:normal;font-family:FreeSans;-inkscape-font-specification:FreeSans">CAP LINE</tspan></text>
    <text
       sodipodi:linespacing="125%"
       id="text7818-7"
       y="969.87109"
       x="350.28107"
       style="font-size:14px;font-style:normal;font-weight:normal;line-height:125%;letter-spacing:0px;word-spacing:0px;fill:#000000;fill-opacity:1;stroke:none;display:inline;font-family:Sans;-inkscape-font-specification:FreeSans"
       xml:space="preserve"><tspan
         style="font-size:14px;font-style:normal;font-variant:normal;font-weight:normal;font-stretch:normal;font-family:FreeSans;-inkscape-font-specification:FreeSans"
         y="969.87109"
         x="350.28107"
         id="tspan7820-0"
         sodipodi:role="line">105</tspan></text>
    <text
       sodipodi:linespacing="125%"
       id="text7818-7-9"
       y="821.66583"
       x="502.10031"
       style="font-size:14px;font-style:normal;font-weight:normal;line-height:125%;letter-spacing:0px;word-spacing:0px;fill:#000000;fill-opacity:1;stroke:none;display:inline;font-family:Sans;-inkscape-font-specification:FreeSans"
       xml:space="preserve"><tspan
         style="font-size:14px;font-style:normal;font-variant:normal;font-weight:normal;font-stretch:normal;font-family:FreeSans;-inkscape-font-specification:FreeSans"
         y="821.66583"
         x="502.10031"
         id="tspan7820-0-3"
         sodipodi:role="line">250</tspan></text>
    <text
       sodipodi:linespacing="125%"
       id="text7818-7-9-5"
       y="751.73328"
       x="609.23834"
       style="font-size:14px;font-style:normal;font-weight:normal;line-height:125%;letter-spacing:0px;word-spacing:0px;fill:#000000;fill-opacity:1;stroke:none;display:inline;font-family:Sans;-inkscape-font-specification:FreeSans"
       xml:space="preserve"><tspan
         style="font-size:14px;font-style:normal;font-variant:normal;font-weight:normal;font-stretch:normal;font-family:FreeSans;-inkscape-font-specification:FreeSans"
         y="751.73328"
         x="609.23834"
         id="tspan7820-0-3-6"
         sodipodi:role="line">720</tspan></text>
    <path
       style="color:#000000;fill:#000000;fill-opacity:1;fill-rule:nonzero;stroke:#000000;stroke-width:1;stroke-linecap:butt;stroke-linejoin:miter;stroke-miterlimit:4;stroke-opacity:1;stroke-dasharray:none;stroke-dashoffset:0;marker:none;marker-end:url(#Arrow1MendeepxuMn);visibility:visible;display:inline;overflow:visible;enable-background:accumulate"
       d="m 479.04609,730.18801 -21.07143,0"
       id="path8595"
       inkscape:connector-curvature="0" />
    <text
       xml:space="preserve"
       style="font-size:14px;font-style:normal;font-weight:normal;line-height:125%;letter-spacing:0px;word-spacing:0px;fill:#000000;fill-opacity:1;stroke:none;display:inline;font-family:Sans;-inkscape-font-specification:FreeSans"
       x="479.97043"
       y="734.98999"
       id="text7935-5"
       sodipodi:linespacing="125%"><tspan
         sodipodi:role="line"
         id="tspan7937-2"
         x="479.97043"
         y="734.98999"
         style="font-size:14px;font-style:normal;font-variant:normal;font-weight:normal;font-stretch:normal;font-family:FreeSans;-inkscape-font-specification:FreeSans">10 OFFSET</tspan></text>
    <path
       style="color:#000000;fill:#000000;fill-opacity:1;fill-rule:nonzero;stroke:#000000;stroke-width:1;stroke-linecap:butt;stroke-linejoin:miter;stroke-miterlimit:4;stroke-opacity:1;stroke-dasharray:none;stroke-dashoffset:0;marker:none;marker-start:url(#Arrow1MstartrkAstc);marker-end:url(#Arrow1MendeepxuM);visibility:visible;display:inline;overflow:visible;enable-background:accumulate"
       d="m 498.21916,923.78805 0,-40.99042"
       id="path8618"
       inkscape:connector-curvature="0"
       sodipodi:nodetypes="cc" />
    <text
       sodipodi:linespacing="125%"
       id="text7818-7-9-6"
       y="906.99585"
       x="502.04431"
       style="font-size:14px;font-style:normal;font-weight:normal;line-height:125%;letter-spacing:0px;word-spacing:0px;fill:#000000;fill-opacity:1;stroke:none;display:inline;font-family:Sans;-inkscape-font-specification:FreeSans"
       xml:space="preserve"><tspan
         style="font-size:14px;font-style:normal;font-variant:normal;font-weight:normal;font-stretch:normal;font-family:FreeSans;-inkscape-font-specification:FreeSans"
         y="906.99585"
         x="502.04431"
         id="tspan7820-0-3-0"
         sodipodi:role="line">95 (BARS)</tspan></text>
    <path
       style="color:#000000;fill:none;stroke:#000000;stroke-width:1.5;stroke-linecap:square;stroke-linejoin:miter;stroke-miterlimit:4;stroke-opacity:1;stroke-dasharray:none;stroke-dashoffset:0;marker:none;visibility:visible;display:inline;overflow:visible;enable-background:accumulate"
       d="m 455.504,927.65449 0,68.80422"
       id="path8641"
       inkscape:connector-curvature="0"
       sodipodi:nodetypes="cc" />
    <path
       sodipodi:nodetypes="cc"
       inkscape:connector-curvature="0"
       id="path8643"
       d="m 339.39459,990.55888 113.52281,0"
       style="color:#000000;fill:#000000;fill-opacity:1;fill-rule:nonzero;stroke:#000000;stroke-width:1;stroke-linecap:butt;stroke-linejoin:miter;stroke-miterlimit:4;stroke-opacity:1;stroke-dasharray:none;stroke-dashoffset:0;marker:none;marker-start:url(#Arrow1MstartrkAstc);marker-end:url(#Arrow1MendeepxuM);visibility:visible;display:inline;overflow:visible;enable-background:accumulate" />
    <text
       sodipodi:linespacing="125%"
       id="text7818-7-0"
       y="1005.6673"
       x="384.57602"
       style="font-size:14px;font-style:normal;font-weight:normal;line-height:125%;letter-spacing:0px;word-spacing:0px;fill:#000000;fill-opacity:1;stroke:none;display:inline;font-family:Sans;-inkscape-font-specification:FreeSans"
       xml:space="preserve"><tspan
         style="font-size:14px;font-style:normal;font-variant:normal;font-weight:normal;font-stretch:normal;font-family:FreeSans;-inkscape-font-specification:FreeSans"
         y="1005.6673"
         x="384.57602"
         id="tspan7820-0-4"
         sodipodi:role="line">240</tspan></text>
    <path
       style="color:#000000;fill:none;stroke:#000000;stroke-width:1.5;stroke-linecap:square;stroke-linejoin:miter;stroke-miterlimit:4;stroke-opacity:1;stroke-dasharray:none;stroke-dashoffset:0;marker:none;visibility:visible;display:inline;overflow:visible;enable-background:accumulate"
       d="m 387.88929,880.11767 0,78.12675"
       id="path3173"
       inkscape:connector-curvature="0"
       sodipodi:nodetypes="cc" />
    <path
       style="color:#000000;fill:none;stroke:#000000;stroke-width:1.5;stroke-linecap:square;stroke-linejoin:miter;stroke-miterlimit:4;stroke-opacity:1;stroke-dasharray:none;stroke-dashoffset:0;marker:none;visibility:visible;display:inline;overflow:visible;enable-background:accumulate"
       d="m 502.71764,753.67201 -50.78841,0"
       id="path3177"
       inkscape:connector-curvature="0"
       sodipodi:nodetypes="cc" />
    <path
       style="color:#000000;fill:none;stroke:#000000;stroke-width:1.5;stroke-linecap:square;stroke-linejoin:miter;stroke-miterlimit:4;stroke-opacity:1;stroke-dasharray:none;stroke-dashoffset:0;marker:none;visibility:visible;display:inline;overflow:visible;enable-background:accumulate"
       d="m 455.42293,695.7859 0,68.80422"
       id="path8641-9"
       inkscape:connector-curvature="0"
       sodipodi:nodetypes="cc" />
  </g>
</svg>
